<?xml version="1.0" encoding="utf-8"?>
<!-- Generator: Adobe Illustrator 16.2.1, SVG Export Plug-In . SVG Version: 6.00 Build 0)  -->
<!DOCTYPE svg PUBLIC "-//W3C//DTD SVG 1.1//EN" "http://www.w3.org/Graphics/SVG/1.1/DTD/svg11.dtd">
<svg version="1.1" id="Layer_1" xmlns="http://www.w3.org/2000/svg" xmlns:xlink="http://www.w3.org/1999/xlink" x="0px" y="0px"
	 viewBox="0 0 255 100" enable-background="new 0 0 255 100" xml:space="preserve">
<g>
	<path fill="#EC1C24" d="M30.956,46.268L30.3,47.077c-0.569,0.699,1.612,4.862,7.876,6.133c-8.288,1.181-9.811-3.75-9.204-4.497
		l0.622-0.767c0,0,0.455-3.24-9.375-3.46c7.87,2.717,8.08,5.057,8.08,5.057l-0.639,0.788c-0.739,0.909,1.245,5.353,7.439,6.67
		c-8.519,1.507-9.313-4.36-8.75-5.054l0.571-0.707c0,0,0.412-3.104-9.122-3.769c7.646,2.95,7.777,5.427,7.777,5.427l-0.645,0.82
		c-1.922,2.424,3.658,7.592,5.783,8.729c1.613,1.188,7.834,3.42,9.25,1.66c0.684,0.088,0.704,0.184,1.17,0.524
		c-0.155,0.57-0.28,2.224,0.241,2.229c0.315-0.791,0.85-1.114,1.105-1.521c0.188,0.821,0.164,1.585,0.014,2.372
		c0.706-0.415,1.576-1.602,1.598-2.251c0.737-0.194,2.267-0.487,2.979-0.453c0.373-0.012,0.758-0.088,1.342-0.43
		c0.252-0.796,0.664-1.13,0.879-1.597c1.422-0.566,2.195-1.074,3.963-1.441c0.547-0.048,1.541-0.354,2.089-0.382
		c0.265-0.415,0.644-0.905,0.7-1.153c0.779-0.537,0.605-0.771,0.592-0.998c-0.164-0.355-0.244-0.863-0.406-1.199
		c-0.194-0.879-0.971-0.393-1.423-0.526c-0.38-0.515-0.647-0.564-1.938,0.062c-1.162-0.242-2.243-0.162-3.187-0.587
		c-0.661-1.019-3.11-2.341-4.859-1.633c-2.823,1.724-1.33-1.272,0.338-2.965c2.001-1.737,5.038-3.523,10.475-2.358
		c-3.251-2.543-9.15-2.396-13.555-1.697c-8.115,1.34-11.024-1.962-10.504-2.605l0.705-0.871c0,0,0.43-3.125-9.512-3.33
		C30.896,43.744,30.956,46.268,30.956,46.268"/>
	<path fill="#FAAF40" d="M60.307,25.771l-0.812-0.61c-0.7-0.527-5.095,1.711-6.659,7.813c-0.893-7.978,4.271-9.607,5.018-9.046
		l0.77,0.577c0,0,3.337,0.337,3.954-9.178c-3.123,7.7-5.555,7.977-5.555,7.977l-0.789-0.593c-0.914-0.688-5.593,1.374-7.2,7.407
		c-1.221-8.193,4.882-9.148,5.579-8.625l0.707,0.53c0,0,3.198,0.301,4.266-8.943c-3.357,7.491-5.928,7.693-5.928,7.693l-0.822-0.596
		c-2.433-1.78-8.005,3.78-9.264,5.873c-1.293,1.597-3.853,7.686-2.085,9c-0.12,0.665-0.219,0.686-0.594,1.147
		c-0.582-0.13-2.288-0.199-2.315,0.304c0.807,0.28,1.12,0.788,1.528,1.021c-0.855,0.208-1.646,0.209-2.456,0.091
		c0.402,0.667,1.597,1.472,2.268,1.473c0.17,0.706,0.415,2.176,0.351,2.869c-0.003,0.359,0.062,0.729,0.391,1.284
		c0.815,0.218,1.145,0.606,1.618,0.8c0.529,1.359,1.022,2.091,1.335,3.789c0.024,0.526,0.305,1.478,0.311,2.007
		c0.42,0.243,0.913,0.594,1.168,0.639c0.525,0.74,0.772,0.564,1.009,0.543c0.375-0.172,0.902-0.263,1.254-0.433
		c0.918-0.217,0.445-0.952,0.604-1.393c0.546-0.386,0.611-0.644,0.013-1.874c0.299-1.131,0.257-2.174,0.735-3.099
		c1.081-0.673,2.544-3.084,1.884-4.753c-1.673-2.677,1.369-1.327,3.052,0.233c1.72,1.88,3.447,4.764,2.026,10.059
		c2.758-3.226,2.841-8.928,2.293-13.167c-1.063-7.809,2.468-10.729,3.114-10.244l0.873,0.656c0,0,3.22,0.315,3.826-9.309
		C62.921,25.633,60.307,25.771,60.307,25.771"/>
	<path fill="#009345" d="M80.227,53.617l0.661-0.805c0.576-0.691-1.556-4.887-7.793-6.229c8.284-1.091,9.75,3.865,9.139,4.604
		l-0.63,0.761c0,0-0.488,3.243,9.318,3.571c-7.825-2.809-8.01-5.155-8.01-5.155l0.646-0.781c0.748-0.905-1.187-5.376-7.354-6.764
		c8.521-1.416,9.252,4.469,8.681,5.16l-0.578,0.699c0,0-0.444,3.106,9.064,3.878c-7.601-3.04-7.703-5.524-7.703-5.524l0.649-0.813
		c1.944-2.407-3.568-7.648-5.679-8.808c-1.596-1.208-7.78-3.513-9.216-1.765c-0.678-0.097-0.696-0.192-1.158-0.541
		c0.159-0.568,0.302-2.223-0.22-2.235c-0.323,0.79-0.859,1.106-1.119,1.511c-0.178-0.825-0.146-1.589,0.012-2.377
		c-0.708,0.409-1.589,1.587-1.617,2.237c-0.738,0.187-2.268,0.465-2.981,0.422c-0.37,0.007-0.754,0.08-1.342,0.415
		c-0.259,0.795-0.674,1.128-0.895,1.59c-1.427,0.553-2.203,1.052-3.971,1.401c-0.546,0.04-1.541,0.338-2.089,0.359
		c-0.269,0.413-0.651,0.899-0.711,1.148c-0.785,0.529-0.615,0.767-0.602,0.994c0.16,0.358,0.233,0.867,0.393,1.205
		c0.185,0.881,0.965,0.402,1.414,0.543c0.375,0.52,0.641,0.575,1.935-0.041c1.158,0.257,2.237,0.187,3.175,0.624
		c0.646,1.029,3.082,2.377,4.833,1.69c2.837-1.696,1.313,1.289-0.37,2.966c-2.017,1.72-5.066,3.472-10.482,2.247
		c3.221,2.583,9.11,2.5,13.514,1.848c8.113-1.25,10.982,2.089,10.457,2.727l-0.715,0.864c0,0-0.46,3.129,9.458,3.442
		C80.255,56.146,80.227,53.617,80.227,53.617"/>
	<path fill="#2B388F" d="M50.882,73.562l0.813,0.607c0.705,0.527,5.149-1.673,6.769-7.716c0.846,7.917-4.373,9.506-5.123,8.946
		l-0.769-0.576c0,0-3.364-0.352-4.051,9.085c3.203-7.621,5.655-7.884,5.655-7.884l0.791,0.592c0.918,0.688,5.646-1.338,7.309-7.312
		c1.178,8.131-4.984,9.051-5.683,8.526l-0.708-0.526c0,0-3.224-0.316-4.362,8.848c3.437-7.412,6.027-7.604,6.027-7.604l0.825,0.598
		c2.442,1.777,8.095-3.711,9.379-5.779c1.316-1.578,3.936-7.605,2.163-8.917c0.124-0.659,0.228-0.681,0.605-1.136
		c0.586,0.133,2.307,0.209,2.339-0.291c-0.812-0.283-1.125-0.785-1.536-1.021c0.864-0.202,1.662-0.198,2.479-0.078
		c-0.403-0.663-1.603-1.467-2.276-1.471c-0.169-0.702-0.404-2.163-0.335-2.849c0.006-0.356-0.057-0.723-0.385-1.274
		c-0.819-0.222-1.152-0.604-1.625-0.802c-0.525-1.35-1.019-2.078-1.319-3.764c-0.024-0.522-0.299-1.469-0.303-1.994
		c-0.421-0.243-0.914-0.594-1.17-0.642c-0.526-0.733-0.779-0.563-1.016-0.542c-0.378,0.168-0.912,0.255-1.269,0.422
		c-0.926,0.208-0.454,0.941-0.618,1.378c-0.554,0.381-0.62,0.635-0.022,1.857c-0.31,1.12-0.276,2.157-0.764,3.069
		c-1.095,0.662-2.586,3.049-1.932,4.709c1.67,2.66-1.388,1.308-3.076-0.248c-1.721-1.873-3.442-4.739-1.974-9.986
		c-2.805,3.188-2.926,8.843-2.402,13.048c1.019,7.75-2.562,10.629-3.209,10.147l-0.875-0.657c0,0-3.243-0.327-3.921,9.214
		C48.244,73.688,50.882,73.562,50.882,73.562"/>
	<path fill="#EC1C24" d="M42.472,67.65c0.563-0.361,1.201-1.172,1.437-1.801"/>
	<path fill="#EC1C24" d="M55.96,59.986c0.778-0.537,0.606-0.771,0.59-0.998c-0.165-0.355-0.244-0.862-0.407-1.197
		c-0.191-0.879-0.969-0.395-1.422-0.527c-0.382-0.515-0.647-0.568-1.938,0.062c-0.655-0.141-1.285-0.174-1.882-0.256l-6.614,8.303
		c0.794-0.186,2.066-0.414,2.7-0.383c0.373-0.014,0.757-0.088,1.342-0.43c0.251-0.797,0.662-1.134,0.878-1.597
		c1.422-0.567,2.197-1.073,3.965-1.442c0.545-0.047,1.54-0.354,2.088-0.383C55.521,60.725,55.902,60.234,55.96,59.986"/>
</g>
<g>
	<g>
		<path fill="#FFFFFF" d="M97.114,51.387h4.828c3.979,0,4.738,1.098,4.738,6.051c0,4.951-0.759,6.049-4.738,6.049h-1.903v9.312
			h-2.925 M100.039,60.994h1.522c1.989,0,2.194-0.326,2.194-3.559s-0.205-3.558-2.194-3.558h-1.522V60.994z"/>
		<path fill="#FFFFFF" d="M121.17,56.843c0-2.995,0.965-5.633,4.943-5.633c3.774,0,4.975,1.985,4.975,5.308v10.824
			c0,2.994-0.966,5.635-4.975,5.635c-3.745,0-4.943-1.985-4.943-5.308 M124.095,67.846c0,1.838,0.819,2.817,2.019,2.817
			c1.229,0,2.048-0.979,2.048-2.817v-11.24c0-2.104-0.703-3.084-2.048-3.084c-1.317,0-2.019,0.979-2.019,3.084V67.846z"/>
		<polyline fill="#FFFFFF" points="145.926,51.387 150.577,51.387 153.271,67.698 153.329,67.698 156.021,51.387 160.555,51.387 
			160.555,72.797 157.805,72.797 157.805,53.523 157.747,53.523 154.764,72.797 151.836,72.797 148.559,53.523 148.501,53.523 
			148.501,72.797 145.926,72.797 		"/>
		<path fill="#FFFFFF" d="M175.395,56.843c0-2.995,0.967-5.633,4.945-5.633c3.774,0,4.975,1.985,4.975,5.308v10.824
			c0,2.994-0.965,5.635-4.975,5.635c-3.744,0-4.945-1.985-4.945-5.308 M178.322,67.846c0,1.838,0.818,2.817,2.018,2.817
			c1.229,0,2.047-0.979,2.047-2.817v-11.24c0-2.104-0.701-3.084-2.047-3.084c-1.316,0-2.018,0.979-2.018,3.084V67.846z"/>
		<polyline fill="#FFFFFF" points="200.152,51.387 204.191,51.387 207.643,69.182 207.702,69.182 207.702,51.387 210.449,51.387 
			210.449,72.797 206.236,72.797 202.787,54.529 202.729,54.529 202.729,72.797 200.152,72.797 		"/>
		<path fill="#FFFFFF" d="M229.271,51.387h3.393l4.3,21.41h-2.925l-0.965-5.455h-4.564l-0.966,5.455h-2.926 M228.947,64.85h3.716
			l-1.813-10.32h-0.059L228.947,64.85z"/>
		<polyline fill="#FFFFFF" points="110.755,25.965 110.755,48.845 104.805,48.845 104.805,39.235 103.023,39.235 103.023,48.845 
			97.074,48.845 97.074,25.965 103.023,25.965 103.023,34.147 104.805,34.147 104.805,25.965 		"/>
		<path fill="#FFFFFF" d="M127.079,39.363c0,2.297-0.054,3.927-0.164,4.883c-0.107,0.955-0.448,1.829-1.017,2.621
			c-0.571,0.791-1.34,1.399-2.311,1.823c-0.971,0.423-2.1,0.635-3.392,0.635c-1.226,0-2.325-0.2-3.301-0.6
			c-0.975-0.4-1.758-1.001-2.353-1.802c-0.593-0.8-0.946-1.672-1.06-2.614c-0.113-0.941-0.17-2.591-0.17-4.946v-3.915
			c0-2.299,0.055-3.926,0.162-4.882c0.108-0.957,0.448-1.832,1.018-2.622c0.571-0.792,1.34-1.399,2.311-1.824
			c0.97-0.423,2.102-0.635,3.393-0.635c1.226,0,2.324,0.2,3.299,0.6c0.977,0.4,1.761,1.001,2.354,1.802
			c0.594,0.801,0.946,1.672,1.061,2.615c0.112,0.942,0.17,2.591,0.17,4.946 M121.128,31.845c0-1.064-0.06-1.745-0.176-2.042
			c-0.119-0.297-0.361-0.446-0.728-0.446c-0.312,0-0.548,0.121-0.715,0.362c-0.163,0.239-0.246,0.948-0.246,2.126v10.684
			c0,1.329,0.053,2.149,0.162,2.46c0.107,0.311,0.361,0.466,0.757,0.466c0.404,0,0.663-0.178,0.776-0.538
			c0.113-0.357,0.169-1.21,0.169-2.558L121.128,31.845L121.128,31.845z"/>
		<path fill="#FFFFFF" d="M129.639,25.965h4.211c2.808,0,4.707,0.108,5.702,0.325c0.994,0.217,1.806,0.77,2.429,1.661
			c0.629,0.89,0.941,2.31,0.941,4.262c0,1.78-0.221,2.976-0.663,3.588c-0.442,0.613-1.313,0.98-2.614,1.103
			c1.176,0.292,1.967,0.683,2.373,1.174c0.404,0.489,0.656,0.939,0.758,1.349c0.098,0.41,0.146,1.539,0.146,3.385v6.034h-5.525
			v-7.603c0-1.224-0.096-1.982-0.289-2.275c-0.192-0.292-0.7-0.438-1.52-0.438v10.316h-5.949 M135.588,29.88v5.088
			c0.668,0,1.137-0.091,1.405-0.275c0.269-0.183,0.403-0.779,0.403-1.788v-1.258c0-0.726-0.131-1.201-0.391-1.427
			C136.748,29.993,136.275,29.88,135.588,29.88"/>
		<path fill="#FFFFFF" d="M158.173,32.891h-5.524v-1.697c0-0.791-0.071-1.295-0.211-1.512c-0.145-0.215-0.379-0.325-0.709-0.325
			c-0.355,0-0.627,0.146-0.812,0.439s-0.276,0.734-0.276,1.33c0,0.764,0.104,1.338,0.31,1.725c0.196,0.388,0.758,0.853,1.684,1.4
			c2.648,1.572,4.314,2.861,5.003,3.871c0.688,1.007,1.032,2.633,1.032,4.875c0,1.631-0.192,2.832-0.571,3.604
			c-0.382,0.772-1.121,1.42-2.214,1.945c-1.093,0.522-2.364,0.783-3.813,0.783c-1.594,0-2.953-0.302-4.079-0.905
			c-1.124-0.603-1.861-1.371-2.21-2.303c-0.35-0.933-0.523-2.256-0.523-3.972v-1.498h5.526v2.783c0,0.858,0.077,1.41,0.231,1.655
			c0.156,0.246,0.434,0.367,0.828,0.367c0.393,0,0.689-0.155,0.883-0.466c0.192-0.31,0.289-0.772,0.289-1.385
			c0-1.346-0.186-2.228-0.551-2.643c-0.379-0.413-1.305-1.106-2.783-2.078c-1.479-0.979-2.461-1.69-2.938-2.134
			c-0.481-0.442-0.88-1.054-1.195-1.837c-0.315-0.781-0.474-1.78-0.474-2.996c0-1.754,0.224-3.035,0.67-3.844
			c0.447-0.81,1.171-1.445,2.171-1.901c0.999-0.456,2.204-0.686,3.618-0.686c1.544,0,2.861,0.25,3.949,0.75
			c1.088,0.499,1.81,1.128,2.162,1.887c0.354,0.758,0.529,2.045,0.529,3.863"/>
		<polyline fill="#FFFFFF" points="160.873,25.965 170.793,25.965 170.793,30.545 166.822,30.545 166.822,34.883 170.54,34.883 
			170.54,39.235 166.822,39.235 166.822,44.266 171.189,44.266 171.189,48.845 160.873,48.845 		"/>
		<polyline fill="#FFFFFF" points="180.695,25.965 190.617,25.965 190.617,30.545 186.646,30.545 186.646,34.883 190.363,34.883 
			190.363,39.235 186.646,39.235 186.646,44.266 191.016,44.266 191.016,48.845 180.695,48.845 		"/>
		<path fill="#FFFFFF" d="M206.475,25.965l-2.092,10.118l3.152,12.762h-5.512c-0.659-2.281-1.262-5.06-1.81-8.338
			c-0.149,1.452-0.36,2.988-0.628,4.608l-0.561,3.729h-5.793l2.162-12.762l-2.162-10.118h5.75c0.105,0.63,0.312,1.68,0.621,3.15
			c0.248,1.12,0.453,2.152,0.609,3.096l1.271-6.247"/>
		<path fill="#FFFFFF" d="M209.391,25.965h5.993c1.619,0,2.865,0.126,3.736,0.381c0.871,0.255,1.526,0.623,1.965,1.103
			c0.438,0.48,0.733,1.062,0.892,1.744c0.155,0.684,0.232,1.741,0.232,3.175v1.992c0,1.46-0.15,2.524-0.452,3.194
			c-0.303,0.668-0.854,1.182-1.659,1.539c-0.808,0.36-1.859,0.538-3.16,0.538h-1.596v9.214h-5.951 M215.342,29.88v5.822
			c0.168,0.009,0.314,0.015,0.438,0.015c0.546,0,0.924-0.135,1.139-0.402c0.212-0.269,0.316-0.827,0.316-1.676V31.76
			c0-0.783-0.125-1.291-0.365-1.526C216.621,29.998,216.113,29.88,215.342,29.88"/>
		<path fill="#FFFFFF" d="M237.855,39.363c0,2.297-0.058,3.927-0.164,4.883c-0.106,0.955-0.446,1.829-1.019,2.621
			c-0.567,0.791-1.341,1.399-2.312,1.823c-0.971,0.423-2.1,0.635-3.391,0.635c-1.225,0-2.324-0.2-3.3-0.6s-1.76-1.001-2.354-1.802
			c-0.594-0.8-0.944-1.672-1.062-2.614c-0.11-0.941-0.169-2.591-0.169-4.946v-3.915c0-2.299,0.055-3.926,0.164-4.882
			c0.107-0.957,0.447-1.832,1.018-2.622c0.57-0.792,1.342-1.399,2.312-1.824c0.971-0.423,2.101-0.635,3.392-0.635
			c1.228,0,2.324,0.2,3.301,0.6s1.76,1.001,2.353,1.802c0.594,0.801,0.946,1.672,1.062,2.615c0.111,0.942,0.17,2.591,0.17,4.946
			 M231.904,31.845c0-1.064-0.061-1.745-0.176-2.042c-0.119-0.297-0.359-0.446-0.729-0.446c-0.311,0-0.549,0.121-0.715,0.362
			c-0.165,0.239-0.246,0.948-0.246,2.126v10.684c0,1.329,0.053,2.149,0.163,2.46c0.106,0.311,0.358,0.466,0.755,0.466
			c0.404,0,0.663-0.178,0.775-0.538c0.113-0.357,0.17-1.21,0.17-2.558V31.845H231.904z"/>
	</g>
</g>
</svg>
